<svg xmlns="http://www.w3.org/2000/svg" viewBox="0 0 22.71 43.65"><title>Asset 1</title><g id="Layer_2" data-name="Layer 2"><g id="Layer_1-2" data-name="Layer 1"><path d="M11.37,36.31,16,31.77a17.86,17.86,0,0,1,1.9-1.8A3.21,3.21,0,0,1,22,30a3.12,3.12,0,0,1-.08,4.12c-2,2.22-4.18,4.29-6.3,6.42-4.18,4.18-4.32,4.18-8.6-.1-2-2-4.12-4-6.05-6.14a3,3,0,0,1-.19-4.07,3.14,3.14,0,0,1,4.39,0c.78.63,1.44,1.39,2.16,2.09Z"/><path d="M11.26,7.42C9.7,9,8.31,10.34,6.91,11.71a23.19,23.19,0,0,1-2.18,2A2.62,2.62,0,0,1,1,13.4C-.12,12.3-.4,10.88.67,9.73c2.89-3.09,5.88-6.08,8.94-9A2.55,2.55,0,0,1,13.33.9c2.87,2.77,5.72,5.55,8.44,8.46a3.11,3.11,0,0,1,.05,4.38,3.28,3.28,0,0,1-4.12-.2c-1.24-1-2.32-2.25-3.48-3.37C13.34,9.32,12.43,8.51,11.26,7.42Z"/></g></g></svg>